<svg width="200" height="200" viewBox="0 0 200 200" fill="none" xmlns="http://www.w3.org/2000/svg">
<path d="M161.049 48.1477C166.667 56.5552 166.667 68.259 166.667 91.6667C166.667 115.074 166.667 126.778 161.049 135.186C158.617 138.825 155.492 141.95 151.852 144.382C144.508 149.29 134.648 149.91 116.667 149.989V150L107.454 168.426C104.383 174.568 95.6175 174.568 92.5464 168.426L83.3333 150V149.989C65.3525 149.91 55.4923 149.29 48.1477 144.382C44.508 141.95 41.383 138.825 38.951 135.186C33.3333 126.778 33.3333 115.074 33.3333 91.6667C33.3333 68.259 33.3333 56.5552 38.951 48.1477C41.383 44.508 44.508 41.383 48.1477 38.9511C56.5551 33.3334 68.259 33.3334 91.6667 33.3334H108.333C131.741 33.3334 143.445 33.3334 151.852 38.9511C155.492 41.383 158.617 44.508 161.049 48.1477Z" stroke="#C65C43" stroke-width="2" stroke-linecap="round" stroke-linejoin="round"/>
<path d="M75 75L125 75" stroke="#C65C43" stroke-width="2" stroke-linecap="round" stroke-linejoin="round"/>
<path d="M75 108.333H100" stroke="#C65C43" stroke-width="2" stroke-linecap="round" stroke-linejoin="round"/>
</svg>
